<svg width="411" height="301" viewBox="0 0 411 301" fill="none" xmlns="http://www.w3.org/2000/svg">
<g clip-path="url(#clip0)">
<path d="M89 9.5C89 47.3315 59.4508 78 23 78C-13.4508 78 -43 47.3315 -43 9.5C-43 -28.3315 -13.4508 -59 23 -59C59.4508 -59 89 -28.3315 89 9.5Z" fill="#3078E2"/>
<path d="M133 149.5C133 174.629 113.301 195 89 195C64.6995 195 45 174.629 45 149.5C45 124.371 64.6995 104 89 104C113.301 104 133 124.371 133 149.5Z" fill="#3078E2"/>
<path d="M260 263.5C260 301.332 230.451 332 194 332C157.549 332 128 301.332 128 263.5C128 225.668 157.549 195 194 195C230.451 195 260 225.668 260 263.5Z" fill="#3078E2"/>
<path d="M431 203.5C431 241.332 401.451 272 365 272C328.549 272 299 241.332 299 203.5C299 165.668 328.549 135 365 135C401.451 135 431 165.668 431 203.5Z" fill="#3078E2"/>
<path d="M457 372.5C457 410.332 427.451 441 391 441C354.549 441 325 410.332 325 372.5C325 334.668 354.549 304 391 304C427.451 304 457 334.668 457 372.5Z" fill="#3078E2"/>
<path d="M237 420.5C237 456.675 208.794 486 174 486C139.206 486 111 456.675 111 420.5C111 384.325 139.206 355 174 355C208.794 355 237 384.325 237 420.5Z" fill="#3078E2"/>
<path d="M471 576C471 621.84 435.183 659 391 659C346.817 659 311 621.84 311 576C311 530.16 346.817 493 391 493C435.183 493 471 530.16 471 576Z" fill="#3078E2"/>
<path d="M80 547C80 592.84 44.1828 630 0 630C-44.1828 630 -80 592.84 -80 547C-80 501.16 -44.1828 464 0 464C44.1828 464 80 501.16 80 547Z" fill="#3078E2"/>
<path d="M221 704C221 749.84 185.183 787 141 787C96.8172 787 61 749.84 61 704C61 658.16 96.8172 621 141 621C185.183 621 221 658.16 221 704Z" fill="#3078E2"/>
<path d="M280 559.5C280 584.077 260.748 604 237 604C213.252 604 194 584.077 194 559.5C194 534.923 213.252 515 237 515C260.748 515 280 534.923 280 559.5Z" fill="#3078E2"/>
<path d="M89 312.5C89 350.332 59.4508 381 23 381C-13.4508 381 -43 350.332 -43 312.5C-43 274.668 -13.4508 244 23 244C59.4508 244 89 274.668 89 312.5Z" fill="#3078E2"/>
<path d="M288 -12.5C288 33.6158 256.66 71 218 71C179.34 71 148 33.6158 148 -12.5C148 -58.6158 179.34 -96 218 -96C256.66 -96 288 -58.6158 288 -12.5Z" fill="#3078E2"/>
<path d="M391 63C391 85.6437 375.554 104 356.5 104C337.446 104 322 85.6437 322 63C322 40.3563 337.446 22 356.5 22C375.554 22 391 40.3563 391 63Z" fill="#3078E2"/>
</g>
<defs>
<clipPath id="clip0">
<rect width="411" height="301" fill="white"/>
</clipPath>
</defs>
</svg>
